<svg xmlns="http://www.w3.org/2000/svg" width="888" height="200" viewBox="0 0 888 200">
  <path fill="none" d="M285.885 153.966h316.23v33.796h-316.23z"/>
  <path fill="#88C0D0" d="M288.315 153.967h1.35l21.959 31.004h.09v-31.004h.9v32.129h-1.35l-21.959-31.004h-.09v31.004h-.9v-32.129zm38.43 8.46c6.75 0 10.395 5.805 10.395 12.104 0 6.345-3.645 12.104-10.44 12.104-6.75 0-10.395-5.76-10.395-12.104 0-6.3 3.645-12.104 10.44-12.104zm0 23.308c6.165 0 9.495-5.354 9.495-11.204 0-5.76-3.33-11.205-9.495-11.205-6.255 0-9.54 5.445-9.54 11.205.001 5.85 3.285 11.204 9.54 11.204zm15.03.361h-.9v-23.129h.9v5.715h.09c.855-3.42 3.555-6.435 9.09-6.255v.899c-6.345-.314-9.18 4.636-9.18 9.675v13.095zm28.754-32.129h.9v32.129h-.9v-6.479h-.09c-1.17 4.05-4.545 7.02-9.27 7.02-6.12 0-9.855-5.085-9.855-12.06 0-6.479 3.465-12.149 9.855-12.149 4.905 0 8.189 2.835 9.27 7.02h.09v-15.481zm-9.36 9.359c-6.345 0-8.955 5.896-8.955 11.25 0 5.939 2.97 11.159 8.955 11.159 5.939 0 9.359-5.175 9.359-11.159.001-7.154-3.734-11.25-9.359-11.25z"/>
  <path fill="#2E3440" d="M386.864 153.967h3.6l9.09 13.455 9.404-13.455h3.42l-10.979 15.659 11.609 16.47h-3.69l-9.764-14.175-9.9 14.175h-3.465l11.564-16.56-10.889-15.569zm28.394 8.91h2.61v5.444h.09c1.439-3.734 4.59-5.939 8.774-5.76v2.835c-5.13-.27-8.64 3.51-8.64 8.325v12.374h-2.835v-23.218zm15.031 12.374c.045 4.14 2.204 9.135 7.649 9.135 4.14 0 6.39-2.43 7.291-5.939h2.834c-1.215 5.265-4.275 8.324-10.125 8.324-7.38 0-10.484-5.67-10.484-12.284 0-6.12 3.104-12.284 10.484-12.284 7.47 0 10.439 6.524 10.214 13.049h-17.863zm15.029-2.385c-.137-4.274-2.791-8.279-7.38-8.279-4.635 0-7.2 4.05-7.649 8.279h15.029zm20.565-3.195c-.135-3.51-2.836-5.084-6.076-5.084-2.52 0-5.488.989-5.488 4.005 0 2.52 2.879 3.42 4.814 3.914l3.779.855c3.24.495 6.615 2.385 6.615 6.435 0 5.04-4.996 6.975-9.314 6.975-5.4 0-9.09-2.52-9.541-8.189h2.836c.225 3.825 3.061 5.805 6.84 5.805 2.654 0 6.344-1.17 6.344-4.41 0-2.699-2.52-3.6-5.084-4.229l-3.645-.81c-3.689-.99-6.48-2.25-6.48-6.21 0-4.725 4.635-6.524 8.73-6.524 4.635 0 8.324 2.43 8.504 7.469h-2.834zm28.529 4.815c0 6.659-3.871 12.284-10.98 12.284s-10.979-5.625-10.979-12.284c0-6.66 3.869-12.284 10.979-12.284s10.98 5.624 10.98 12.284zm-19.125 0c0 4.949 2.699 9.899 8.145 9.899s8.145-4.95 8.145-9.899c0-4.95-2.699-9.899-8.145-9.899s-8.145 4.949-8.145 9.899zm42.164 11.61h-2.609v-4.185h-.09c-1.486 3.104-4.545 4.859-8.01 4.859-5.85 0-8.145-3.42-8.145-8.819v-15.074h2.834v15.119c.135 4.185 1.711 6.39 6.209 6.39 4.861 0 6.975-4.59 6.975-9.314v-12.194h2.836v23.218zm5.356-23.219h2.609v5.444h.09c1.439-3.734 4.59-5.939 8.775-5.76v2.835c-5.131-.27-8.641 3.51-8.641 8.325v12.374h-2.834v-23.218zm29.744 7.289c-.766-3.465-2.881-5.579-6.57-5.579-5.445 0-8.145 4.949-8.145 9.899 0 4.949 2.699 9.899 8.145 9.899 3.51 0 6.391-2.745 6.75-6.614h2.834c-.764 5.579-4.408 8.999-9.584 8.999-7.109 0-10.979-5.625-10.979-12.284 0-6.66 3.869-12.284 10.979-12.284 4.949 0 8.775 2.654 9.404 7.964h-2.834zm8.64 5.085c.045 4.14 2.203 9.135 7.648 9.135 4.141 0 6.391-2.43 7.291-5.939h2.834c-1.215 5.265-4.275 8.324-10.125 8.324-7.379 0-10.484-5.67-10.484-12.284 0-6.12 3.105-12.284 10.484-12.284 7.471 0 10.439 6.524 10.215 13.049h-17.863zm15.03-2.385c-.137-4.274-2.791-8.279-7.381-8.279-4.635 0-7.199 4.05-7.648 8.279h15.029zm20.564-3.195c-.135-3.51-2.836-5.084-6.076-5.084-2.52 0-5.488.989-5.488 4.005 0 2.52 2.879 3.42 4.814 3.914l3.779.855c3.24.495 6.615 2.385 6.615 6.435 0 5.04-4.996 6.975-9.314 6.975-5.4 0-9.09-2.52-9.541-8.189h2.836c.225 3.825 3.061 5.805 6.84 5.805 2.654 0 6.344-1.17 6.344-4.41 0-2.699-2.52-3.6-5.084-4.229l-3.645-.81c-3.689-.99-6.48-2.25-6.48-6.21 0-4.725 4.635-6.524 8.73-6.524 4.635 0 8.324 2.43 8.504 7.469h-2.834z"/>
  <g fill="#2E3440">
    <path d="M466.56 135.966l-43.391-55.545V65.009l48.09 62.172h25.844V39.636h-43.465l-9.396-9.399h62.257v105.729z"/>
    <path d="M421.44 30.237l43.393 55.541v15.41l-48.091-62.167h-25.843v87.544h43.463l9.4 9.401h-62.261V30.237z"/>
  </g>
</svg>
